<svg width="29" height="28" viewBox="0 0 29 28" fill="none" xmlns="http://www.w3.org/2000/svg">
<g clip-path="url(#clip0_3_783)">
<g clip-path="url(#clip1_3_783)">
<path d="M14.72 27.5C22.1758 27.5 28.22 21.4558 28.22 14C28.22 6.54416 22.1758 0.5 14.72 0.5C7.26413 0.5 1.21997 6.54416 1.21997 14C1.21997 21.4558 7.26413 27.5 14.72 27.5Z" fill="#1DA1F2" fill-opacity="0.1" stroke="white"/>
<path d="M12.3872 14C12.3872 12.7114 13.4316 11.6665 14.7203 11.6665C16.0089 11.6665 17.0539 12.7114 17.0539 14C17.0539 15.2886 16.0089 16.3335 14.7203 16.3335C13.4316 16.3335 12.3872 15.2886 12.3872 14ZM11.1257 14C11.1257 15.9852 12.735 17.5944 14.7203 17.5944C16.7056 17.5944 18.3148 15.9852 18.3148 14C18.3148 12.0148 16.7056 10.4056 14.7203 10.4056C12.735 10.4056 11.1257 12.0148 11.1257 14ZM17.6171 10.2631C17.617 10.4292 17.6662 10.5916 17.7585 10.7298C17.8507 10.868 17.9819 10.9757 18.1354 11.0393C18.2888 11.103 18.4577 11.1197 18.6207 11.0873C18.7837 11.055 18.9334 10.975 19.0509 10.8576C19.1684 10.7402 19.2485 10.5905 19.281 10.4276C19.3134 10.2647 19.2969 10.0958 19.2334 9.94226C19.1698 9.78874 19.0622 9.65751 18.9241 9.56515C18.786 9.4728 18.6236 9.42347 18.4575 9.4234C18.2348 9.4235 18.0209 9.51199 17.8634 9.66943C17.7059 9.82686 17.6173 10.0404 17.6171 10.2631ZM11.8922 19.6978C11.2097 19.6668 10.8387 19.5531 10.5922 19.457C10.2653 19.3298 10.0321 19.1783 9.78696 18.9334C9.54178 18.6886 9.39001 18.4556 9.26334 18.1288C9.16724 17.8824 9.05355 17.5114 9.02253 16.8289C8.98859 16.091 8.98181 15.8694 8.98181 14.0001C8.98181 12.1307 8.98915 11.9097 9.02253 11.1712C9.05361 10.4887 9.16813 10.1184 9.26334 9.87129C9.39057 9.54447 9.54211 9.31129 9.78696 9.06612C10.0318 8.82095 10.2648 8.66919 10.5922 8.54252C10.8386 8.44642 11.2097 8.33274 11.8922 8.30172C12.6301 8.26778 12.8517 8.26101 14.7203 8.26101C16.5889 8.26101 16.8107 8.26834 17.5492 8.30172C18.2317 8.3328 18.6021 8.44732 18.8492 8.54252C19.176 8.66919 19.4092 8.82129 19.6544 9.06612C19.8996 9.31095 20.0508 9.54447 20.178 9.87129C20.2741 10.1177 20.3878 10.4887 20.4188 11.1712C20.4528 11.9097 20.4596 12.1307 20.4596 14.0001C20.4596 15.8694 20.4528 16.0904 20.4188 16.8289C20.3878 17.5114 20.2735 17.8823 20.178 18.1288C20.0508 18.4556 19.8993 18.6888 19.6544 18.9334C19.4096 19.178 19.176 19.3298 18.8492 19.457C18.6028 19.5531 18.2317 19.6668 17.5492 19.6978C16.8113 19.7318 16.5897 19.7385 14.7203 19.7385C12.8509 19.7385 12.6298 19.7318 11.8922 19.6978ZM11.8342 7.04239C11.089 7.07633 10.5797 7.19449 10.135 7.36753C9.67445 7.54622 9.28456 7.78596 8.89495 8.17494C8.50535 8.56391 8.26622 8.9544 8.08751 9.41494C7.91447 9.85992 7.7963 10.3688 7.76236 11.114C7.72787 11.8604 7.71997 12.099 7.71997 14C7.71997 15.901 7.72787 16.1396 7.76236 16.886C7.7963 17.6312 7.91447 18.1401 8.08751 18.5851C8.26622 19.0453 8.5054 19.4363 8.89495 19.8251C9.2845 20.2139 9.67445 20.4533 10.135 20.6325C10.5806 20.8055 11.089 20.9237 11.8342 20.9576C12.581 20.9915 12.8192 21 14.7203 21C16.6213 21 16.86 20.9921 17.6064 20.9576C18.3516 20.9237 18.8605 20.8055 19.3055 20.6325C19.7658 20.4533 20.156 20.214 20.5456 19.8251C20.9352 19.4361 21.1738 19.0453 21.353 18.5851C21.5261 18.1401 21.6448 17.6312 21.6782 16.886C21.7121 16.139 21.72 15.901 21.72 14C21.72 12.099 21.7121 11.8604 21.6782 11.114C21.6442 10.3688 21.5261 9.85964 21.353 9.41494C21.1738 8.95468 20.9346 8.56453 20.5456 8.17494C20.1566 7.78534 19.7658 7.54622 19.3061 7.36753C18.8605 7.19449 18.3516 7.07577 17.6069 7.04239C16.8605 7.00846 16.6219 7 14.7208 7C12.8198 7 12.581 7.0079 11.8342 7.04239Z" fill="white"/>
</g>
</g>
<defs>
<clipPath id="clip0_3_783">
<rect width="28" height="28" fill="white" transform="translate(0.719971)"/>
</clipPath>
<clipPath id="clip1_3_783">
<rect width="28" height="28" fill="white" transform="translate(0.719971)"/>
</clipPath>
</defs>
</svg>
