<svg width="29" height="28" viewBox="0 0 29 28" fill="none" xmlns="http://www.w3.org/2000/svg">
<g clip-path="url(#clip0_3_777)">
<g clip-path="url(#clip1_3_777)">
<path d="M14.5801 27.5C22.0359 27.5 28.0801 21.4558 28.0801 14C28.0801 6.54416 22.0359 0.5 14.5801 0.5C7.12423 0.5 1.08008 6.54416 1.08008 14C1.08008 21.4558 7.12423 27.5 14.5801 27.5Z" fill="#1DA1F2" fill-opacity="0.1" stroke="white"/>
<path d="M11.499 19.5984H9.11854V12.1084H11.499V19.5984ZM10.3088 11.0584C9.53863 11.0584 8.97852 10.4984 8.97852 9.72844C8.97852 8.95844 9.60864 8.39844 10.3088 8.39844C11.0789 8.39844 11.639 8.95844 11.639 9.72844C11.639 10.4984 11.0789 11.0584 10.3088 11.0584ZM20.1807 19.5984H17.8002V15.5384C17.8002 14.3484 17.3101 13.9984 16.61 13.9984C15.9099 13.9984 15.2097 14.5584 15.2097 15.6084V19.5984H12.8293V12.1084H15.0697V13.1584C15.2797 12.6684 16.1199 11.8984 17.3101 11.8984C18.6404 11.8984 20.0406 12.6684 20.0406 14.9784V19.5984H20.1807Z" fill="white"/>
</g>
</g>
<defs>
<clipPath id="clip0_3_777">
<rect width="28" height="28" fill="white" transform="translate(0.580078)"/>
</clipPath>
<clipPath id="clip1_3_777">
<rect width="28" height="28" fill="white" transform="translate(0.580078)"/>
</clipPath>
</defs>
</svg>
