<svg width="28" height="28" viewBox="0 0 28 28" fill="none" xmlns="http://www.w3.org/2000/svg">
<g clip-path="url(#clip0_3_795)">
<g clip-path="url(#clip1_3_795)">
<g clip-path="url(#clip2_3_795)">
<path d="M14 27.5C21.4558 27.5 27.5 21.4558 27.5 14C27.5 6.54416 21.4558 0.5 14 0.5C6.54416 0.5 0.5 6.54416 0.5 14C0.5 21.4558 6.54416 27.5 14 27.5Z" fill="#1DA1F2" fill-opacity="0.1" stroke="white"/>
<path d="M13.9988 6C15.9431 6 17.7013 6.77878 19.0414 8.2335C20.0594 9.32858 20.6312 10.4903 20.9239 12.0207C21.0244 12.5297 21.0244 13.9172 20.9295 14.4896C20.6174 16.3117 19.6556 17.943 18.235 19.0582C17.7282 19.456 16.4892 20.1468 16.2907 20.1468C16.2158 20.1468 16.2102 20.0692 16.2427 19.749C16.3044 19.2367 16.3625 19.1326 16.6421 19.011C17.0871 18.8195 17.848 18.2561 18.313 17.7749C19.1251 16.932 19.7043 15.8784 19.9839 14.7225C20.1593 14.011 20.1362 12.4308 19.9446 11.7005C19.3398 9.37515 17.506 7.5705 15.2633 7.08473C14.6136 6.94696 13.4264 6.94696 12.7667 7.08473C10.4972 7.5705 8.61781 9.467 8.04607 11.8525C7.89315 12.5019 7.89315 14.0828 8.04607 14.7296C8.42619 16.3098 9.41175 17.7574 10.7019 18.6203C10.9559 18.7956 11.2612 18.9741 11.3885 19.0284C11.6675 19.1526 11.7299 19.258 11.7811 19.7658C11.8136 20.0795 11.8067 20.1668 11.7362 20.1668C11.6906 20.1668 11.3492 20.0148 10.9878 19.8363L10.9553 19.8098C8.89744 18.7619 7.58044 16.987 7.09983 14.6248C6.98312 14.0148 6.96002 12.5634 7.07736 12.0039C7.37634 10.5013 7.9487 9.32923 8.90056 8.29171C10.2731 6.79172 12.0383 6 14.0013 6H13.9988ZM14.113 8.42625C14.4507 8.42949 14.7796 8.45989 15.0324 8.51681C17.3512 9.05238 18.9921 11.4554 18.6732 13.8396C18.5465 14.8027 18.2281 15.5918 17.6626 16.326C17.383 16.6966 16.7033 17.3169 16.5834 17.3169C16.5635 17.3169 16.5441 17.0808 16.5441 16.7975V16.2749L16.8887 15.8473C18.195 14.227 18.1014 11.9631 16.6771 10.4812C16.1247 9.90167 15.4837 9.56079 14.6579 9.40684C14.1255 9.30271 14.0144 9.30271 13.4551 9.39973C12.6038 9.54139 11.9465 9.88097 11.361 10.4812C9.93106 11.9502 9.83619 14.227 11.1438 15.8473L11.4884 16.2749V16.8007C11.4884 17.0905 11.4653 17.3227 11.4359 17.3227C11.4135 17.3227 11.2181 17.185 11.0096 17.0129L10.9803 17.0025C10.2881 16.4301 9.67703 15.4159 9.42299 14.4185C9.27069 13.8156 9.27069 12.674 9.42985 12.0737C9.8493 10.4534 11.0034 9.19663 12.6 8.60736C12.9414 8.48253 13.5419 8.41526 14.108 8.42561L14.113 8.42625ZM14.0025 11.0032C14.2628 11.0032 14.5193 11.0576 14.7084 11.1585C15.111 11.3777 15.4468 11.7982 15.5729 12.2432C15.9599 13.6041 14.5686 14.7969 13.3066 14.1869H13.2972C12.7024 13.9004 12.3834 13.3616 12.3766 12.6604C12.3766 12.0271 12.7142 11.478 13.3028 11.1546C13.4882 11.0537 13.7454 11.0026 14.005 11.0026L14.0025 11.0032ZM13.9956 15.0834C14.8189 15.0802 15.4131 15.3829 15.6341 15.9185C15.7995 16.3195 15.7383 17.5828 15.4518 19.628C15.2602 21.0562 15.1529 21.4165 14.887 21.6597C14.5193 21.9961 14.0025 22.0911 13.5082 21.9087H13.5057C12.9108 21.6862 12.7835 21.3861 12.5363 19.6274C12.2542 17.5828 12.1918 16.3189 12.3585 15.9178C12.5757 15.3855 13.1667 15.0873 13.9956 15.0834Z" fill="white"/>
</g>
</g>
</g>
<defs>
<clipPath id="clip0_3_795">
<rect width="28" height="28" fill="white"/>
</clipPath>
<clipPath id="clip1_3_795">
<rect width="28" height="28" fill="white"/>
</clipPath>
<clipPath id="clip2_3_795">
<rect width="28" height="28" fill="white"/>
</clipPath>
</defs>
</svg>
