<svg width="114" height="114" viewBox="0 0 114 114" fill="none" xmlns="http://www.w3.org/2000/svg">
<mask id="mask0_0_802" style="mask-type:luminance" maskUnits="userSpaceOnUse" x="0" y="0" width="114" height="114">
<path d="M114 0H0V114H114V0Z" fill="white"/>
</mask>
<g mask="url(#mask0_0_802)">
<path d="M73.6413 33.2458L79.9983 50.4256C82.885 58.2265 89.0355 64.377 96.8365 67.2638L114.016 73.6208L96.8365 79.9777C89.0355 82.8645 82.885 89.015 79.9983 96.816L73.6413 113.996L67.2843 96.816C64.3976 89.015 58.2471 82.8645 50.4461 79.9777L33.2664 73.6208L50.4461 67.2638C58.2471 64.377 64.3976 58.2265 67.2843 50.4256L73.6413 33.2458Z" fill="white"/>
<path d="M52.2663 0L55.1243 7.72308C56.5675 11.6236 59.643 14.6989 63.5434 16.1422L71.2663 19L63.5434 21.8578C59.643 23.3011 56.5675 26.3764 55.1243 30.2769L52.2663 38L49.4087 30.2769C47.9651 26.3764 44.8901 23.3011 40.9894 21.8578L33.2664 19L40.9894 16.1422C44.8901 14.6989 47.9651 11.6236 49.4087 7.72308L52.2663 0Z" fill="white"/>
<path d="M11.875 33.2458L13.9454 38.8409C14.667 40.7912 16.2047 42.329 18.1549 43.0506L23.75 45.1208L18.1549 47.1913C16.2047 47.9129 14.667 49.4507 13.9454 51.4009L11.875 56.9958L9.80463 51.4009C9.08297 49.4507 7.54532 47.9129 5.59508 47.1913L0 45.1208L5.59508 43.0506C7.54532 42.329 9.08297 40.7912 9.80463 38.8409L11.875 33.2458Z" fill="white"/>
</g>
</svg>
