<svg width="27" height="27" viewBox="0 0 27 27" fill="none" xmlns="http://www.w3.org/2000/svg">
<g clip-path="url(#clip0_0_27)">
<mask id="mask0_0_27" style="mask-type:luminance" maskUnits="userSpaceOnUse" x="0" y="0" width="27" height="27">
<path d="M27 0H0V27H27V0Z" fill="white"/>
</mask>
<g mask="url(#mask0_0_27)">
<path d="M17.4414 7.87402L18.947 11.9429C19.6307 13.7905 21.0874 15.2472 22.935 15.9309L27.0039 17.4365L22.935 18.9421C21.0874 19.6258 19.6307 21.0825 18.947 22.9301L17.4414 26.999L15.9358 22.9301C15.2521 21.0825 13.7954 19.6258 11.9478 18.9421L7.87891 17.4365L11.9478 15.9309C13.7954 15.2472 15.2521 13.7905 15.9358 11.9429L17.4414 7.87402Z" fill="white"/>
<path d="M12.3789 0L13.0558 1.82915C13.3976 2.75295 14.126 3.48132 15.0498 3.82315L16.8789 4.5L15.0498 5.17685C14.126 5.51868 13.3976 6.24705 13.0558 7.17085L12.3789 9L11.7021 7.17085C11.3602 6.24705 10.6319 5.51868 9.70806 5.17685L7.87891 4.5L9.70806 3.82315C10.6319 3.48132 11.3602 2.75295 11.7021 1.82915L12.3789 0Z" fill="white"/>
<path d="M2.8125 7.87402L3.30285 9.19917C3.47377 9.66107 3.83795 10.0253 4.29985 10.1962L5.625 10.6865L4.29985 11.1769C3.83795 11.3478 3.47377 11.712 3.30285 12.1739L2.8125 13.499L2.32215 12.1739C2.15123 11.712 1.78705 11.3478 1.32515 11.1769L0 10.6865L1.32515 10.1962C1.78705 10.0253 2.15123 9.66107 2.32215 9.19917L2.8125 7.87402Z" fill="white"/>
</g>
</g>
<defs>
<clipPath id="clip0_0_27">
<rect width="27" height="27" fill="white"/>
</clipPath>
</defs>
</svg>
