<svg width="29" height="28" viewBox="0 0 29 28" fill="none" xmlns="http://www.w3.org/2000/svg">
<g clip-path="url(#clip0_3_771)">
<g clip-path="url(#clip1_3_771)">
<path d="M14.44 27.0343C21.6387 27.0343 27.4745 21.1985 27.4745 13.9998C27.4745 6.80107 21.6387 0.965332 14.44 0.965332C7.24126 0.965332 1.40552 6.80107 1.40552 13.9998C1.40552 21.1985 7.24126 27.0343 14.44 27.0343Z" fill="#1DA1F2" fill-opacity="0.1" stroke="white" stroke-width="0.965517"/>
<path d="M15.8238 13.2686L20.0112 8.20679H19.0189L15.383 12.6019L12.479 8.20679H9.12964L13.521 14.853L9.12964 20.1611H10.122L13.9616 15.5197L17.0283 20.1611H20.3777L15.8238 13.2686ZM14.4647 14.9115L10.4795 8.98363H12.0037L19.0193 19.4196H17.4952L14.4647 14.9115Z" fill="white"/>
</g>
</g>
<defs>
<clipPath id="clip0_3_771">
<rect width="28" height="28" fill="white" transform="translate(0.439941)"/>
</clipPath>
<clipPath id="clip1_3_771">
<rect width="28" height="27.0345" fill="white" transform="translate(0.439941 0.482666)"/>
</clipPath>
</defs>
</svg>
