<svg width="29" height="28" viewBox="0 0 29 28" fill="none" xmlns="http://www.w3.org/2000/svg">
<g clip-path="url(#clip0_3_789)">
<g clip-path="url(#clip1_3_789)">
<path d="M14.8601 27.5C22.316 27.5 28.3601 21.4558 28.3601 14C28.3601 6.54416 22.316 0.5 14.8601 0.5C7.40426 0.5 1.36011 6.54416 1.36011 14C1.36011 21.4558 7.40426 27.5 14.8601 27.5Z" fill="#1DA1F2" fill-opacity="0.1" stroke="white"/>
<path d="M19.9616 9.29526C15.7475 8.83837 12.1546 9.07602 10.025 9.36327C9.19407 9.47535 8.53306 10.1061 8.40596 10.9348C8.05298 13.2363 8.19431 15.4217 8.41948 16.8806C8.539 17.6551 9.13877 18.2519 9.91248 18.3762C13.1141 18.8903 17.3016 18.6408 20.0484 18.3287C20.9838 18.2225 21.721 17.4923 21.788 16.5533C21.9177 14.7343 21.8574 12.7 21.7566 11.1667C21.6922 10.1868 20.9379 9.4011 19.9616 9.29526Z" fill="white"/>
<path d="M13.7585 11.7891V15.8767L17.2851 13.8329L13.7585 11.7891Z" fill="#1B2933"/>
</g>
</g>
<defs>
<clipPath id="clip0_3_789">
<rect width="28" height="28" fill="white" transform="translate(0.860107)"/>
</clipPath>
<clipPath id="clip1_3_789">
<rect width="28" height="28" fill="white" transform="translate(0.860107)"/>
</clipPath>
</defs>
</svg>
