<svg width="72" height="72" viewBox="0 0 72 72" fill="none" xmlns="http://www.w3.org/2000/svg">
<rect width="72" height="72" rx="16" fill="white"/>
<g clip-path="url(#clip0_0_261)">
<g clip-path="url(#clip1_0_261)">
<g clip-path="url(#clip2_0_261)">
<mask id="mask0_0_261" style="mask-type:luminance" maskUnits="userSpaceOnUse" x="20" y="20" width="32" height="32">
<path d="M52 20H20V52H52V20Z" fill="white"/>
</mask>
<g mask="url(#mask0_0_261)">
<path d="M40.6693 29.332L42.4537 34.1544C43.264 36.3442 44.9905 38.0706 47.1802 38.8809L52.0026 40.6654L47.1802 42.4498C44.9905 43.2601 43.264 44.9866 42.4537 47.1763L40.6693 51.9987L38.8848 47.1763C38.0745 44.9866 36.3481 43.2601 34.1583 42.4498L29.3359 40.6654L34.1583 38.8809C36.3481 38.0706 38.0745 36.3442 38.8848 34.1544L40.6693 29.332Z" fill="#1673CA"/>
<path d="M34.6693 20L35.4715 22.1679C35.8766 23.2628 36.7398 24.126 37.8347 24.5311L40.0026 25.3333L37.8347 26.1355C36.7398 26.5407 35.8766 27.4039 35.4715 28.4988L34.6693 30.6667L33.8671 28.4988C33.4619 27.4039 32.5987 26.5407 31.5038 26.1355L29.3359 25.3333L31.5038 24.5311C32.5987 24.126 33.4619 23.2628 33.8671 22.1679L34.6693 20Z" fill="#1673CA"/>
<path d="M23.3333 29.332L23.9145 30.9026C24.1171 31.45 24.5487 31.8816 25.0961 32.0842L26.6667 32.6654L25.0961 33.2465C24.5487 33.4491 24.1171 33.8807 23.9145 34.4282L23.3333 35.9987L22.7522 34.4281C22.5496 33.8807 22.118 33.4491 21.5705 33.2465L20 32.6654L21.5705 32.0842C22.118 31.8816 22.5496 31.45 22.7522 30.9026L23.3333 29.332Z" fill="#1673CA"/>
</g>
</g>
</g>
</g>
<defs>
<clipPath id="clip0_0_261">
<rect width="32" height="32" fill="white" transform="translate(20 20)"/>
</clipPath>
<clipPath id="clip1_0_261">
<rect width="32" height="32" fill="white" transform="translate(20 20)"/>
</clipPath>
<clipPath id="clip2_0_261">
<rect width="32" height="32" fill="white" transform="translate(20 20)"/>
</clipPath>
</defs>
</svg>
