<svg width="60" height="60" viewBox="0 0 60 60" fill="none" xmlns="http://www.w3.org/2000/svg">
<g clip-path="url(#clip0_0_293)">
<g clip-path="url(#clip1_0_293)">
<g clip-path="url(#clip2_0_293)">
<path d="M51.994 0H7.42772C3.32551 0 0 3.32551 0 7.42772V51.994C0 56.0962 3.32551 59.4217 7.42772 59.4217H51.994C56.0962 59.4217 59.4217 56.0962 59.4217 51.994V7.42772C59.4217 3.32551 56.0962 0 51.994 0Z" fill="#1673CA"/>
<path d="M17.7049 19.5317C17.7049 18.5229 18.5229 17.7049 19.5317 17.7049H26.2809C27.2898 17.7049 28.1077 18.5229 28.1077 19.5317V28.1722C28.1077 29.1812 27.2898 29.9991 26.2809 29.9991H19.5317C18.5229 29.9991 17.7049 29.1812 17.7049 28.1722V19.5317Z" stroke="white" stroke-width="1.9674"/>
<path d="M17.7049 35.6047C17.7049 34.5958 18.5229 33.7778 19.5317 33.7778H26.2809C27.2898 33.7778 28.1077 34.5958 28.1077 35.6047V39.5167C28.1077 40.5257 27.2898 41.3435 26.2809 41.3435H19.5317C18.5229 41.3435 17.7049 40.5257 17.7049 39.5167V35.6047Z" fill="#1673CA" stroke="white" stroke-width="1.9674"/>
<path d="M42.2954 39.5192C42.2954 40.5281 41.4774 41.3461 40.4685 41.3461H33.7194C32.7104 41.3461 31.8926 40.5281 31.8926 39.5192V30.8787C31.8926 29.8698 32.7104 29.0518 33.7194 29.0518H40.4685C41.4774 29.0518 42.2954 29.8698 42.2954 30.8787V39.5192Z" stroke="white" stroke-width="1.9674"/>
<path d="M42.2954 23.4462C42.2954 24.4552 41.4774 25.2731 40.4685 25.2731H33.7194C32.7104 25.2731 31.8926 24.4552 31.8926 23.4462V19.5343C31.8926 18.5253 32.7104 17.7075 33.7194 17.7075H40.4685C41.4774 17.7075 42.2954 18.5253 42.2954 19.5343V23.4462Z" fill="#1673CA" stroke="white" stroke-width="1.9674"/>
</g>
</g>
</g>
<defs>
<clipPath id="clip0_0_293">
<rect width="60" height="60" fill="white"/>
</clipPath>
<clipPath id="clip1_0_293">
<rect width="60" height="60" fill="white"/>
</clipPath>
<clipPath id="clip2_0_293">
<rect width="60" height="60" fill="white"/>
</clipPath>
</defs>
</svg>
