<svg width="60" height="60" viewBox="0 0 60 60" fill="none" xmlns="http://www.w3.org/2000/svg">
<g clip-path="url(#clip0_0_305)">
<g clip-path="url(#clip1_0_305)">
<g clip-path="url(#clip2_0_305)">
<path d="M51.994 0H7.42772C3.32551 0 0 3.32551 0 7.42772V51.994C0 56.0962 3.32551 59.4217 7.42772 59.4217H51.994C56.0962 59.4217 59.4217 56.0962 59.4217 51.994V7.42772C59.4217 3.32551 56.0962 0 51.994 0Z" fill="#1673CA"/>
<path d="M17.7049 19.5317C17.7049 18.5229 18.5229 17.7049 19.5318 17.7049H26.2809C27.2899 17.7049 28.1077 18.5229 28.1077 19.5317V28.1722C28.1077 29.1812 27.2899 29.9991 26.2809 29.9991H19.5318C18.5229 29.9991 17.7049 29.1812 17.7049 28.1722V19.5317Z" stroke="white" stroke-width="1.9674"/>
<path d="M17.7049 35.6047C17.7049 34.5958 18.5229 33.7778 19.5318 33.7778H26.2809C27.2899 33.7778 28.1077 34.5958 28.1077 35.6047V39.5167C28.1077 40.5257 27.2899 41.3435 26.2809 41.3435H19.5318C18.5229 41.3435 17.7049 40.5257 17.7049 39.5167V35.6047Z" fill="#1673CA" stroke="white" stroke-width="1.9674"/>
<path d="M42.2954 39.5192C42.2954 40.5281 41.4774 41.3461 40.4685 41.3461H33.7194C32.7104 41.3461 31.8926 40.5281 31.8926 39.5192V30.8787C31.8926 29.8698 32.7104 29.0518 33.7194 29.0518H40.4685C41.4774 29.0518 42.2954 29.8698 42.2954 30.8787V39.5192Z" stroke="white" stroke-width="1.9674"/>
<path d="M42.2954 23.4462C42.2954 24.4552 41.4774 25.2731 40.4685 25.2731H33.7194C32.7104 25.2731 31.8926 24.4552 31.8926 23.4462V19.5343C31.8926 18.5253 32.7104 17.7075 33.7194 17.7075H40.4685C41.4774 17.7075 42.2954 18.5253 42.2954 19.5343V23.4462Z" fill="#1673CA" stroke="white" stroke-width="1.9674"/>
</g>
<g clip-path="url(#clip3_0_305)">
<g clip-path="url(#clip4_0_305)">
<g clip-path="url(#clip5_0_305)">
<path d="M51.994 0H7.42772C3.32551 0 0 3.32551 0 7.42772V51.994C0 56.0962 3.32551 59.4217 7.42772 59.4217H51.994C56.0962 59.4217 59.4217 56.0962 59.4217 51.994V7.42772C59.4217 3.32551 56.0962 0 51.994 0Z" fill="#1673CA"/>
<path opacity="0.2" d="M18.5943 23.4144C18.51 23.5572 18.4656 23.72 18.4656 23.8858V35.3341C18.4656 35.4988 18.5095 35.6606 18.5927 35.8029C18.6758 35.945 18.7953 36.0625 18.9389 36.1433L29.152 41.8881C29.291 41.9663 29.4478 42.0074 29.6072 42.0074H29.6084L29.7174 29.61L18.5943 23.4144Z" fill="white"/>
<path d="M40.7489 35.3347V23.8865C40.7489 23.7218 40.705 23.56 40.6219 23.4177C40.5387 23.2755 40.4191 23.1581 40.2755 23.0772L30.0625 17.3323C29.9235 17.2542 29.7667 17.2131 29.6072 17.2131C29.4478 17.2131 29.291 17.2542 29.152 17.3323L18.9389 23.0772C18.7953 23.1581 18.6758 23.2755 18.5927 23.4177C18.5095 23.56 18.4656 23.7218 18.4656 23.8865V35.3347C18.4656 35.4995 18.5095 35.6613 18.5927 35.8035C18.6758 35.9456 18.7953 36.0632 18.9389 36.1439L29.152 41.8889C29.291 41.967 29.4478 42.0081 29.6072 42.0081C29.7667 42.0081 29.9235 41.967 30.0625 41.8889L40.2755 36.1439C40.4191 36.0632 40.5387 35.9456 40.6219 35.8035C40.705 35.6613 40.7489 35.4995 40.7489 35.3347Z" stroke="white" stroke-width="1.85693" stroke-linecap="round" stroke-linejoin="round"/>
<path d="M35.2971 32.4555V26.4205L24.0369 20.2101" stroke="white" stroke-width="1.85693" stroke-linecap="round" stroke-linejoin="round"/>
<path d="M40.6233 23.4156L29.7199 29.61L18.5967 23.4144" stroke="white" stroke-width="1.85693" stroke-linecap="round" stroke-linejoin="round"/>
<path d="M29.7173 29.61L29.6084 42.0075" stroke="white" stroke-width="1.85693" stroke-linecap="round" stroke-linejoin="round"/>
</g>
</g>
</g>
</g>
</g>
<defs>
<clipPath id="clip0_0_305">
<rect width="60" height="60" fill="white"/>
</clipPath>
<clipPath id="clip1_0_305">
<rect width="60" height="60" fill="white"/>
</clipPath>
<clipPath id="clip2_0_305">
<rect width="60" height="60" fill="white"/>
</clipPath>
<clipPath id="clip3_0_305">
<rect width="60" height="60" fill="white"/>
</clipPath>
<clipPath id="clip4_0_305">
<rect width="60" height="60" fill="white"/>
</clipPath>
<clipPath id="clip5_0_305">
<rect width="60" height="60" fill="white"/>
</clipPath>
</defs>
</svg>
