<svg width="60" height="60" viewBox="0 0 60 60" fill="none" xmlns="http://www.w3.org/2000/svg">
<g clip-path="url(#clip0_0_326)">
<g clip-path="url(#clip1_0_326)">
<g clip-path="url(#clip2_0_326)">
<path d="M51.994 0H7.42772C3.32551 0 0 3.32551 0 7.42772V51.994C0 56.0962 3.32551 59.4217 7.42772 59.4217H51.994C56.0962 59.4217 59.4217 56.0962 59.4217 51.994V7.42772C59.4217 3.32551 56.0962 0 51.994 0Z" fill="#1673CA"/>
<path d="M17.7049 19.5317C17.7049 18.5229 18.5229 17.7049 19.5318 17.7049H26.2809C27.2899 17.7049 28.1077 18.5229 28.1077 19.5317V28.1722C28.1077 29.1812 27.2899 29.9991 26.2809 29.9991H19.5318C18.5229 29.9991 17.7049 29.1812 17.7049 28.1722V19.5317Z" stroke="white" stroke-width="1.9674"/>
<path d="M17.7049 35.6047C17.7049 34.5958 18.5229 33.7778 19.5318 33.7778H26.2809C27.2899 33.7778 28.1077 34.5958 28.1077 35.6047V39.5167C28.1077 40.5257 27.2899 41.3435 26.2809 41.3435H19.5318C18.5229 41.3435 17.7049 40.5257 17.7049 39.5167V35.6047Z" fill="#1673CA" stroke="white" stroke-width="1.9674"/>
<path d="M42.2954 39.5192C42.2954 40.5281 41.4774 41.3461 40.4685 41.3461H33.7194C32.7104 41.3461 31.8926 40.5281 31.8926 39.5192V30.8787C31.8926 29.8698 32.7104 29.0518 33.7194 29.0518H40.4685C41.4774 29.0518 42.2954 29.8698 42.2954 30.8787V39.5192Z" stroke="white" stroke-width="1.9674"/>
<path d="M42.2954 23.4462C42.2954 24.4552 41.4774 25.2731 40.4685 25.2731H33.7194C32.7104 25.2731 31.8926 24.4552 31.8926 23.4462V19.5343C31.8926 18.5253 32.7104 17.7075 33.7194 17.7075H40.4685C41.4774 17.7075 42.2954 18.5253 42.2954 19.5343V23.4462Z" fill="#1673CA" stroke="white" stroke-width="1.9674"/>
<g clip-path="url(#clip3_0_326)">
<g clip-path="url(#clip4_0_326)">
<g clip-path="url(#clip5_0_326)">
<path d="M52.5 0H7.5C3.35786 0 0 3.35786 0 7.5V52.5C0 56.6421 3.35786 60 7.5 60H52.5C56.6421 60 60 56.6421 60 52.5V7.5C60 3.35786 56.6421 0 52.5 0Z" fill="#1673CA"/>
<path opacity="0.2" d="M30 41.25C36.2132 41.25 41.25 36.2132 41.25 30C41.25 23.7868 36.2132 18.75 30 18.75C23.7868 18.75 18.75 23.7868 18.75 30C18.75 36.2132 23.7868 41.25 30 41.25Z" fill="white"/>
<path d="M30.2151 37.2115C29.8645 37.2115 29.5805 36.9273 29.5805 36.5768V35.7836C28.2646 35.6814 27.2162 35.2396 26.4187 34.6159C26.0902 34.3589 26.0621 33.8877 26.307 33.55C26.6284 33.1069 27.2789 33.0768 27.7312 33.385C28.2436 33.7341 28.8689 34.009 29.5805 34.1177V31.0398C27.9463 30.6273 26.2328 30.0402 26.2328 27.9777C26.2328 26.3595 27.5338 25.0744 29.5805 24.8999V24.0749C29.5805 23.7244 29.8645 23.4402 30.2151 23.4402C30.5655 23.4402 30.8497 23.7244 30.8497 24.0749V24.9158C31.8513 25.0271 32.7277 25.3601 33.4562 25.8772C33.8081 26.1269 33.842 26.6187 33.5812 26.9625C33.2693 27.3735 32.6661 27.4072 32.2236 27.142C31.7932 26.8841 31.3244 26.7102 30.8497 26.6133V29.358C32.4997 29.7865 34.2924 30.4052 34.2924 32.5312C34.2924 34.1494 33.2295 35.5773 30.8497 35.7836V36.5768C30.8497 36.9273 30.5655 37.2115 30.2151 37.2115ZM32.3886 32.7057C32.3886 31.9917 31.7223 31.6427 30.8497 31.373V34.1336C31.9444 33.9749 32.3886 33.3244 32.3886 32.7057ZM28.1367 27.835C28.1367 28.4537 28.7395 28.7711 29.5805 29.0249V26.534C28.692 26.6451 28.1367 27.1369 28.1367 27.835Z" fill="white"/>
<path d="M30 41.25C36.2132 41.25 41.25 36.2132 41.25 30C41.25 23.7868 36.2132 18.75 30 18.75C23.7868 18.75 18.75 23.7868 18.75 30C18.75 36.2132 23.7868 41.25 30 41.25Z" stroke="white" stroke-width="1.875" stroke-linecap="round" stroke-linejoin="round"/>
</g>
</g>
</g>
</g>
</g>
</g>
<defs>
<clipPath id="clip0_0_326">
<rect width="60" height="60" fill="white"/>
</clipPath>
<clipPath id="clip1_0_326">
<rect width="60" height="60" fill="white"/>
</clipPath>
<clipPath id="clip2_0_326">
<rect width="60" height="60" fill="white"/>
</clipPath>
<clipPath id="clip3_0_326">
<rect width="60" height="60" fill="white"/>
</clipPath>
<clipPath id="clip4_0_326">
<rect width="60" height="60" fill="white"/>
</clipPath>
<clipPath id="clip5_0_326">
<rect width="60" height="60" fill="white"/>
</clipPath>
</defs>
</svg>
