<svg width="60" height="60" viewBox="0 0 60 60" fill="none" xmlns="http://www.w3.org/2000/svg">
<g clip-path="url(#clip0_0_345)">
<g clip-path="url(#clip1_0_345)">
<g clip-path="url(#clip2_0_345)">
<path d="M51.994 0H7.42772C3.32551 0 0 3.32551 0 7.42772V51.994C0 56.0962 3.32551 59.4217 7.42772 59.4217H51.994C56.0962 59.4217 59.4217 56.0962 59.4217 51.994V7.42772C59.4217 3.32551 56.0962 0 51.994 0Z" fill="#1673CA"/>
<path d="M17.7049 19.5317C17.7049 18.5229 18.5229 17.7049 19.5318 17.7049H26.2809C27.2899 17.7049 28.1077 18.5229 28.1077 19.5317V28.1722C28.1077 29.1812 27.2899 29.9991 26.2809 29.9991H19.5318C18.5229 29.9991 17.7049 29.1812 17.7049 28.1722V19.5317Z" stroke="white" stroke-width="1.9674"/>
<path d="M17.7049 35.6047C17.7049 34.5958 18.5229 33.7778 19.5318 33.7778H26.2809C27.2899 33.7778 28.1077 34.5958 28.1077 35.6047V39.5167C28.1077 40.5257 27.2899 41.3435 26.2809 41.3435H19.5318C18.5229 41.3435 17.7049 40.5257 17.7049 39.5167V35.6047Z" fill="#1673CA" stroke="white" stroke-width="1.9674"/>
<path d="M42.2951 39.5192C42.2951 40.5281 41.4771 41.3461 40.4682 41.3461H33.7191C32.7101 41.3461 31.8923 40.5281 31.8923 39.5192V30.8787C31.8923 29.8698 32.7101 29.0518 33.7191 29.0518H40.4682C41.4771 29.0518 42.2951 29.8698 42.2951 30.8787V39.5192Z" stroke="white" stroke-width="1.9674"/>
<path d="M42.2951 23.4462C42.2951 24.4552 41.4771 25.2731 40.4682 25.2731H33.7191C32.7101 25.2731 31.8923 24.4552 31.8923 23.4462V19.5343C31.8923 18.5253 32.7101 17.7075 33.7191 17.7075H40.4682C41.4771 17.7075 42.2951 18.5253 42.2951 19.5343V23.4462Z" fill="#1673CA" stroke="white" stroke-width="1.9674"/>
<g clip-path="url(#clip3_0_345)">
<g clip-path="url(#clip4_0_345)">
<g clip-path="url(#clip5_0_345)">
<path d="M52.5 0H7.5C3.35786 0 0 3.35786 0 7.5V52.5C0 56.6421 3.35786 60 7.5 60H52.5C56.6421 60 60 56.6421 60 52.5V7.5C60 3.35786 56.6421 0 52.5 0Z" fill="#1673CA"/>
<mask id="mask0_0_345" style="mask-type:luminance" maskUnits="userSpaceOnUse" x="17" y="17" width="27" height="27">
<path d="M43.4842 17.5168H17.5195V43.4815H43.4842V17.5168Z" fill="white"/>
</mask>
<g mask="url(#mask0_0_345)">
<path d="M18.5193 30.9995V29.5016C18.5193 23.4347 23.4375 18.5165 29.5043 18.5165C35.5712 18.5165 40.4894 23.4347 40.4894 29.5016V30.9995" stroke="white" stroke-width="1.99728" stroke-linecap="round" stroke-linejoin="round"/>
<path d="M22.5139 34.4947V27.5043H22.0146C20.0842 27.5043 18.5193 29.0691 18.5193 30.9996C18.5193 32.9299 20.0842 34.4947 22.0146 34.4947H22.5139Z" fill="#1673CA" stroke="white" stroke-width="1.99728" stroke-linecap="round" stroke-linejoin="round"/>
<path d="M36.4937 34.4947V27.5043H36.993C38.9234 27.5043 40.4883 29.0691 40.4883 30.9996C40.4883 32.9299 38.9234 34.4947 36.993 34.4947H36.4937Z" fill="#1673CA" stroke="white" stroke-width="1.99728" stroke-linecap="round" stroke-linejoin="round"/>
<path d="M30.0039 37.4907H31.0025C31.8297 37.4907 32.5004 38.1613 32.5004 38.9887C32.5004 39.8159 31.8297 40.4866 31.0025 40.4866H30.0039C29.1765 40.4866 28.5058 39.8159 28.5058 38.9887C28.5058 38.1613 29.1765 37.4907 30.0039 37.4907Z" fill="white"/>
<path d="M38.4923 34.368V34.4947C38.4923 36.9767 36.4803 38.9886 33.9984 38.9886H32.5004M32.5004 38.9886C32.5004 38.1613 31.8297 37.4907 31.0025 37.4907H30.0039C29.1765 37.4907 28.5058 38.1613 28.5058 38.9886C28.5058 39.8159 29.1765 40.4866 30.0039 40.4866H31.0025C31.8297 40.4866 32.5004 39.8159 32.5004 38.9886Z" stroke="white" stroke-width="1.99728" stroke-linecap="round" stroke-linejoin="round"/>
</g>
</g>
</g>
</g>
</g>
</g>
</g>
<defs>
<clipPath id="clip0_0_345">
<rect width="60" height="60" fill="white"/>
</clipPath>
<clipPath id="clip1_0_345">
<rect width="60" height="60" fill="white"/>
</clipPath>
<clipPath id="clip2_0_345">
<rect width="60" height="60" fill="white"/>
</clipPath>
<clipPath id="clip3_0_345">
<rect width="60" height="60" fill="white"/>
</clipPath>
<clipPath id="clip4_0_345">
<rect width="60" height="60" fill="white"/>
</clipPath>
<clipPath id="clip5_0_345">
<rect width="60" height="60" fill="white"/>
</clipPath>
</defs>
</svg>
