<svg width="96" height="96" viewBox="0 0 96 96" fill="none" xmlns="http://www.w3.org/2000/svg">
<circle cx="48" cy="48" r="48" fill="#F6F8FC"/>
<path fill-rule="evenodd" clip-rule="evenodd" d="M32.1406 47.625C33.7701 46.6522 34.8614 44.8714 34.8614 42.8357C34.8614 39.7573 32.3658 37.2617 29.2874 37.2617C26.2089 37.2617 23.7134 39.7573 23.7134 42.8357C23.7134 44.8713 24.8046 46.6521 26.434 47.625C24.3784 48.1676 22.5554 49.2827 21.1456 50.7893C17.9821 54.1701 21.8928 58.4044 26.5229 58.4044H32.0517C36.6818 58.4044 40.5925 54.1701 37.429 50.7893C36.0192 49.2827 34.1962 48.1677 32.1406 47.625Z" fill="#8AB9FF"/>
<path fill-rule="evenodd" clip-rule="evenodd" d="M69.1137 47.9892C70.7441 47.0166 71.836 45.2353 71.836 43.199C71.836 40.1205 69.3406 37.625 66.2622 37.625C63.1838 37.625 60.6881 40.1205 60.6881 43.199C60.6881 45.2352 61.78 47.0165 63.4103 47.9891C61.354 48.5316 59.5303 49.6469 58.1202 51.1539C54.9566 54.5347 58.8673 58.769 63.4975 58.769H69.0262C73.6563 58.769 77.5671 54.5347 74.4036 51.1539C72.9935 49.6469 71.1699 48.5318 69.1137 47.9892Z" fill="#8AB9FF"/>
<path fill-rule="evenodd" clip-rule="evenodd" d="M53.0583 47.9143C56.1912 46.0456 58.2896 42.6228 58.2896 38.7098C58.2896 32.795 53.4947 28 47.5798 28C41.6649 28 36.87 32.795 36.87 38.7098C36.87 42.6225 38.9681 46.0451 42.1007 47.9139C37.4322 49.1453 33.3877 51.9132 30.5406 55.6439C25.8674 61.7676 32.4036 68.6267 40.1067 68.6267H55.0507C62.7538 68.6267 69.2901 61.7676 64.6169 55.6439C61.7701 51.9136 57.7261 49.1459 53.0583 47.9143Z" fill="#0F67EA"/>
</svg>
