<svg width="96" height="96" viewBox="0 0 96 96" fill="none" xmlns="http://www.w3.org/2000/svg">
<circle cx="48" cy="48" r="48" fill="#F6F8FC"/>
<path d="M46.6695 35.0133C47.2989 33.6622 49.2198 33.6622 49.8493 35.0133L53.1866 42.1768L60.9881 43.1878C62.4506 43.3773 63.0405 45.1773 61.974 46.1957L56.2317 51.6792L57.6926 59.506C57.9649 60.9652 56.4144 62.0819 55.1167 61.3611L48.2594 57.552L41.4021 61.3611C40.1043 62.0819 38.5538 60.9652 38.8262 59.506L40.287 51.6792L34.5447 46.1957C33.4782 45.1773 34.0682 43.3773 35.5306 43.1878L43.3322 42.1768L46.6695 35.0133Z" fill="url(#paint0_linear_0_196)"/>
<path d="M70.1481 48C70.1481 61.2548 59.3698 72 46.0741 72C32.7783 72 22 61.2548 22 48C22 34.7452 32.7783 24 46.0741 24M70.1481 48L64.8519 51.84M70.1481 48L74 53.76" stroke="#FFAF15" stroke-width="4" stroke-linecap="round" stroke-linejoin="round"/>
<defs>
<linearGradient id="paint0_linear_0_196" x1="48.2594" y1="31.6005" x2="48.2594" y2="63.172" gradientUnits="userSpaceOnUse">
<stop stop-color="#FFAF15"/>
<stop offset="1" stop-color="#FF9900"/>
</linearGradient>
</defs>
</svg>
